<svg id="visual" viewBox="0 0 450 450" width="450" height="450" xmlns="http://www.w3.org/2000/svg" xmlns:xlink="http://www.w3.org/1999/xlink" version="1.1"><rect x="0" y="0" width="450" height="450" fill="#f0f8ff"></rect><defs><linearGradient id="grad1_0" x1="0%" y1="100%" x2="100%" y2="0%"><stop offset="30%" stop-color="#8ccbff" stop-opacity="1"></stop><stop offset="70%" stop-color="#8ccbff" stop-opacity="1"></stop></linearGradient></defs><defs><linearGradient id="grad1_1" x1="0%" y1="100%" x2="100%" y2="0%"><stop offset="30%" stop-color="#8ccbff" stop-opacity="1"></stop><stop offset="70%" stop-color="#f0f8ff" stop-opacity="1"></stop></linearGradient></defs><defs><linearGradient id="grad2_0" x1="0%" y1="100%" x2="100%" y2="0%"><stop offset="30%" stop-color="#8ccbff" stop-opacity="1"></stop><stop offset="70%" stop-color="#8ccbff" stop-opacity="1"></stop></linearGradient></defs><defs><linearGradient id="grad2_1" x1="0%" y1="100%" x2="100%" y2="0%"><stop offset="30%" stop-color="#f0f8ff" stop-opacity="1"></stop><stop offset="70%" stop-color="#8ccbff" stop-opacity="1"></stop></linearGradient></defs><g transform="translate(450, 450)"><path d="M-143.2 0C-140.4 -18.7 -137.6 -37.5 -130.3 -54C-123 -70.4 -111.2 -84.7 -98.3 -98.3C-85.4 -111.9 -71.4 -124.9 -54.8 -132.3C-38.2 -139.7 -19.1 -141.4 0 -143.2L0 0Z" fill="#c0e2ff"></path><path d="M-71.6 0C-70.2 -9.4 -68.8 -18.7 -65.1 -27C-61.5 -35.2 -55.6 -42.3 -49.1 -49.1C-42.7 -56 -35.7 -62.5 -27.4 -66.1C-19.1 -69.8 -9.6 -70.7 0 -71.6L0 0Z" fill="#8ccbff"></path></g><g transform="translate(0, 0)"><path d="M143.2 0C141.4 19.1 139.6 38.2 132.3 54.8C124.9 71.4 112 85.6 98.3 98.3C84.6 111 70.1 122.1 53.6 129.3C37.1 136.6 18.5 139.9 0 143.2L0 0Z" fill="#c0e2ff"></path><path d="M71.6 0C70.7 9.5 69.8 19.1 66.1 27.4C62.5 35.7 56 42.8 49.1 49.1C42.3 55.5 35 61.1 26.8 64.7C18.5 68.3 9.3 69.9 0 71.6L0 0Z" fill="#8ccbff"></path></g></svg>