<svg id="visual" viewBox="0 0 900 600" width="900" height="600" xmlns="http://www.w3.org/2000/svg" xmlns:xlink="http://www.w3.org/1999/xlink" version="1.1"><rect x="0" y="0" width="900" height="600" fill="#f0f8ff"></rect><defs><linearGradient id="grad1_0" x1="33.3%" y1="100%" x2="100%" y2="0%"><stop offset="20%" stop-color="#8ccbff" stop-opacity="1"></stop><stop offset="80%" stop-color="#8ccbff" stop-opacity="1"></stop></linearGradient></defs><defs><linearGradient id="grad1_1" x1="33.3%" y1="100%" x2="100%" y2="0%"><stop offset="20%" stop-color="#8ccbff" stop-opacity="1"></stop><stop offset="80%" stop-color="#f0f8ff" stop-opacity="1"></stop></linearGradient></defs><defs><linearGradient id="grad2_0" x1="0%" y1="100%" x2="66.7%" y2="0%"><stop offset="20%" stop-color="#8ccbff" stop-opacity="1"></stop><stop offset="80%" stop-color="#8ccbff" stop-opacity="1"></stop></linearGradient></defs><defs><linearGradient id="grad2_1" x1="0%" y1="100%" x2="66.7%" y2="0%"><stop offset="20%" stop-color="#f0f8ff" stop-opacity="1"></stop><stop offset="80%" stop-color="#8ccbff" stop-opacity="1"></stop></linearGradient></defs><g transform="translate(900, 600)"><path d="M-243.4 0C-240 -32.1 -236.6 -64.1 -224.8 -93.1C-213.1 -122.2 -193 -148.2 -169.7 -169.7C-146.4 -191.3 -119.9 -208.3 -91.1 -219.9C-62.3 -231.4 -31.1 -237.4 0 -243.4L0 0Z" fill="#c0e2ff"></path><path d="M-121.7 0C-120 -16 -118.3 -32.1 -112.4 -46.6C-106.6 -61.1 -96.5 -74.1 -84.9 -84.9C-73.2 -95.6 -59.9 -104.2 -45.5 -109.9C-31.1 -115.7 -15.6 -118.7 0 -121.7L0 0Z" fill="#8ccbff"></path></g><g transform="translate(0, 0)"><path d="M243.4 0C240 32 236.7 64 224.8 93.1C213 122.2 192.7 148.4 169 169C145.3 189.6 118.3 204.7 89.5 216.2C60.8 227.7 30.4 235.5 0 243.4L0 0Z" fill="#c0e2ff"></path><path d="M121.7 0C120 16 118.3 32 112.4 46.6C106.5 61.1 96.3 74.2 84.5 84.5C72.7 94.8 59.1 102.4 44.8 108.1C30.4 113.8 15.2 117.8 0 121.7L0 0Z" fill="#8ccbff"></path></g></svg>