<svg id="visual" viewBox="0 0 900 600" width="900" height="600" xmlns="http://www.w3.org/2000/svg" xmlns:xlink="http://www.w3.org/1999/xlink" version="1.1"><rect x="0" y="0" width="900" height="600" fill="#e7f5ff"></rect><path d="M638 0L609.7 50C581.3 100 524.7 200 541.8 300C559 400 650 500 695.5 550L741 600L0 600L0 550C0 500 0 400 0 300C0 200 0 100 0 50L0 0Z" fill="#92ccff"></path><path d="M544 0L521 50C498 100 452 200 445.5 300C439 400 472 500 488.5 550L505 600L0 600L0 550C0 500 0 400 0 300C0 200 0 100 0 50L0 0Z" fill="#a7d7ff"></path><path d="M278 0L305.7 50C333.3 100 388.7 200 388.8 300C389 400 334 500 306.5 550L279 600L0 600L0 550C0 500 0 400 0 300C0 200 0 100 0 50L0 0Z" fill="#bce1ff"></path><path d="M244 0L225.3 50C206.7 100 169.3 200 188.2 300C207 400 282 500 319.5 550L357 600L0 600L0 550C0 500 0 400 0 300C0 200 0 100 0 50L0 0Z" fill="#d1ebff"></path><path d="M184 0L195.3 50C206.7 100 229.3 200 215.3 300C201.3 400 150.7 500 125.3 550L100 600L0 600L0 550C0 500 0 400 0 300C0 200 0 100 0 50L0 0Z" fill="#e7f5ff"></path></svg>