<svg id="visual" viewBox="0 0 900 600" width="900" height="600" xmlns="http://www.w3.org/2000/svg" xmlns:xlink="http://www.w3.org/1999/xlink" version="1.1"><rect x="0" y="0" width="900" height="600" fill="#e7f5ff"></rect><path d="M0 61L37.5 81.7C75 102.3 150 143.7 225 152.5C300 161.3 375 137.7 450 117C525 96.3 600 78.7 675 93.3C750 108 825 155 862.5 178.5L900 202L900 601L862.5 601C825 601 750 601 675 601C600 601 525 601 450 601C375 601 300 601 225 601C150 601 75 601 37.5 601L0 601Z" fill="#c5e4ff"></path><path d="M0 296L37.5 262C75 228 150 160 225 130C300 100 375 108 450 133.7C525 159.3 600 202.7 675 220.2C750 237.7 825 229.3 862.5 225.2L900 221L900 601L862.5 601C825 601 750 601 675 601C600 601 525 601 450 601C375 601 300 601 225 601C150 601 75 601 37.5 601L0 601Z" fill="#cee8ff"></path><path d="M0 360L37.5 361.8C75 363.7 150 367.3 225 337.8C300 308.3 375 245.7 450 228.3C525 211 600 239 675 266.5C750 294 825 321 862.5 334.5L900 348L900 601L862.5 601C825 601 750 601 675 601C600 601 525 601 450 601C375 601 300 601 225 601C150 601 75 601 37.5 601L0 601Z" fill="#d7ecff"></path><path d="M0 294L37.5 319.5C75 345 150 396 225 389.8C300 383.7 375 320.3 450 302.5C525 284.7 600 312.3 675 341.8C750 371.3 825 402.7 862.5 418.3L900 434L900 601L862.5 601C825 601 750 601 675 601C600 601 525 601 450 601C375 601 300 601 225 601C150 601 75 601 37.5 601L0 601Z" fill="#dff0ff"></path><path d="M0 526L37.5 511.3C75 496.7 150 467.3 225 436.7C300 406 375 374 450 363.5C525 353 600 364 675 369.7C750 375.3 825 375.7 862.5 375.8L900 376L900 601L862.5 601C825 601 750 601 675 601C600 601 525 601 450 601C375 601 300 601 225 601C150 601 75 601 37.5 601L0 601Z" fill="#e8f4ff"></path><path d="M0 481L37.5 491.5C75 502 150 523 225 521.2C300 519.3 375 494.7 450 481C525 467.3 600 464.7 675 471C750 477.3 825 492.7 862.5 500.3L900 508L900 601L862.5 601C825 601 750 601 675 601C600 601 525 601 450 601C375 601 300 601 225 601C150 601 75 601 37.5 601L0 601Z" fill="#f0f8ff"></path></svg>