<svg id="visual" viewBox="0 0 900 600" width="900" height="600" xmlns="http://www.w3.org/2000/svg" xmlns:xlink="http://www.w3.org/1999/xlink" version="1.1"><rect x="0" y="0" width="900" height="600" fill="#f0f8ff"></rect><path d="M0 436L21.5 433.5C43 431 86 426 128.8 433.2C171.7 440.3 214.3 459.7 257.2 458C300 456.3 343 433.7 385.8 420.8C428.7 408 471.3 405 514.2 410C557 415 600 428 642.8 434.5C685.7 441 728.3 441 771.2 440.7C814 440.3 857 439.7 878.5 439.3L900 439L900 601L878.5 601C857 601 814 601 771.2 601C728.3 601 685.7 601 642.8 601C600 601 557 601 514.2 601C471.3 601 428.7 601 385.8 601C343 601 300 601 257.2 601C214.3 601 171.7 601 128.8 601C86 601 43 601 21.5 601L0 601Z" fill="#92ccff"></path><path d="M0 399L21.5 400.2C43 401.3 86 403.7 128.8 416.3C171.7 429 214.3 452 257.2 454.3C300 456.7 343 438.3 385.8 441C428.7 443.7 471.3 467.3 514.2 467.8C557 468.3 600 445.7 642.8 431.5C685.7 417.3 728.3 411.7 771.2 417.7C814 423.7 857 441.3 878.5 450.2L900 459L900 601L878.5 601C857 601 814 601 771.2 601C728.3 601 685.7 601 642.8 601C600 601 557 601 514.2 601C471.3 601 428.7 601 385.8 601C343 601 300 601 257.2 601C214.3 601 171.7 601 128.8 601C86 601 43 601 21.5 601L0 601Z" fill="#aedaff"></path><path d="M0 513L21.5 509.7C43 506.3 86 499.7 128.8 497.8C171.7 496 214.3 499 257.2 503.7C300 508.3 343 514.7 385.8 510.5C428.7 506.3 471.3 491.7 514.2 481.2C557 470.7 600 464.3 642.8 469.3C685.7 474.3 728.3 490.7 771.2 499.8C814 509 857 511 878.5 512L900 513L900 601L878.5 601C857 601 814 601 771.2 601C728.3 601 685.7 601 642.8 601C600 601 557 601 514.2 601C471.3 601 428.7 601 385.8 601C343 601 300 601 257.2 601C214.3 601 171.7 601 128.8 601C86 601 43 601 21.5 601L0 601Z" fill="#cae8ff"></path><path d="M0 529L21.5 532.7C43 536.3 86 543.7 128.8 550.5C171.7 557.3 214.3 563.7 257.2 565.7C300 567.7 343 565.3 385.8 565.8C428.7 566.3 471.3 569.7 514.2 569C557 568.3 600 563.7 642.8 563.2C685.7 562.7 728.3 566.3 771.2 567.8C814 569.3 857 568.7 878.5 568.3L900 568L900 601L878.5 601C857 601 814 601 771.2 601C728.3 601 685.7 601 642.8 601C600 601 557 601 514.2 601C471.3 601 428.7 601 385.8 601C343 601 300 601 257.2 601C214.3 601 171.7 601 128.8 601C86 601 43 601 21.5 601L0 601Z" fill="#e7f5ff"></path></svg>