<svg id="visual" viewBox="0 0 900 600" width="900" height="600" xmlns="http://www.w3.org/2000/svg" xmlns:xlink="http://www.w3.org/1999/xlink" version="1.1"><rect x="0" y="0" width="900" height="600" fill="#e7f5ff"></rect><path d="M0 354L129 444L257 425L386 382L514 384L643 415L771 381L900 357L900 601L771 601L643 601L514 601L386 601L257 601L129 601L0 601Z" fill="#92ccff"></path><path d="M0 449L129 400L257 395L386 423L514 414L643 426L771 478L900 409L900 601L771 601L643 601L514 601L386 601L257 601L129 601L0 601Z" fill="#abd7ff"></path><path d="M0 439L129 482L257 502L386 496L514 474L643 488L771 500L900 481L900 601L771 601L643 601L514 601L386 601L257 601L129 601L0 601Z" fill="#c2e2ff"></path><path d="M0 491L129 501L257 486L386 530L514 483L643 499L771 497L900 521L900 601L771 601L643 601L514 601L386 601L257 601L129 601L0 601Z" fill="#d9edff"></path><path d="M0 571L129 527L257 571L386 538L514 551L643 571L771 546L900 542L900 601L771 601L643 601L514 601L386 601L257 601L129 601L0 601Z" fill="#f0f8ff"></path></svg>