<svg id="visual" viewBox="0 0 900 600" width="900" height="600" xmlns="http://www.w3.org/2000/svg" xmlns:xlink="http://www.w3.org/1999/xlink" version="1.1"><rect x="0" y="0" width="900" height="600" fill="#e7f5ff"></rect><path d="M0 398L21.5 409.2C43 420.3 86 442.7 128.8 453.7C171.7 464.7 214.3 464.3 257.2 467C300 469.7 343 475.3 385.8 474.8C428.7 474.3 471.3 467.7 514.2 465.7C557 463.7 600 466.3 642.8 473.2C685.7 480 728.3 491 771.2 492.5C814 494 857 486 878.5 482L900 478L900 601L878.5 601C857 601 814 601 771.2 601C728.3 601 685.7 601 642.8 601C600 601 557 601 514.2 601C471.3 601 428.7 601 385.8 601C343 601 300 601 257.2 601C214.3 601 171.7 601 128.8 601C86 601 43 601 21.5 601L0 601Z" fill="#e7f5ff"></path><path d="M0 529L21.5 524C43 519 86 509 128.8 504.5C171.7 500 214.3 501 257.2 491.2C300 481.3 343 460.7 385.8 462.3C428.7 464 471.3 488 514.2 492C557 496 600 480 642.8 480.3C685.7 480.7 728.3 497.3 771.2 505.7C814 514 857 514 878.5 514L900 514L900 601L878.5 601C857 601 814 601 771.2 601C728.3 601 685.7 601 642.8 601C600 601 557 601 514.2 601C471.3 601 428.7 601 385.8 601C343 601 300 601 257.2 601C214.3 601 171.7 601 128.8 601C86 601 43 601 21.5 601L0 601Z" fill="#9fa7ae"></path><path d="M0 484L21.5 490.2C43 496.3 86 508.7 128.8 517C171.7 525.3 214.3 529.7 257.2 535.2C300 540.7 343 547.3 385.8 548.2C428.7 549 471.3 544 514.2 539.8C557 535.7 600 532.3 642.8 535.5C685.7 538.7 728.3 548.3 771.2 544.5C814 540.7 857 523.3 878.5 514.7L900 506L900 601L878.5 601C857 601 814 601 771.2 601C728.3 601 685.7 601 642.8 601C600 601 557 601 514.2 601C471.3 601 428.7 601 385.8 601C343 601 300 601 257.2 601C214.3 601 171.7 601 128.8 601C86 601 43 601 21.5 601L0 601Z" fill="#5d6064"></path><path d="M0 575L21.5 575.5C43 576 86 577 128.8 570.8C171.7 564.7 214.3 551.3 257.2 550C300 548.7 343 559.3 385.8 566.7C428.7 574 471.3 578 514.2 579.7C557 581.3 600 580.7 642.8 572.3C685.7 564 728.3 548 771.2 548.2C814 548.3 857 564.7 878.5 572.8L900 581L900 601L878.5 601C857 601 814 601 771.2 601C728.3 601 685.7 601 642.8 601C600 601 557 601 514.2 601C471.3 601 428.7 601 385.8 601C343 601 300 601 257.2 601C214.3 601 171.7 601 128.8 601C86 601 43 601 21.5 601L0 601Z" fill="#222222"></path></svg>